PathFileType	4	(X/Y/Z)	pose_F01_0-74.trc
DataRate	CameraRate	NumFrames	NumMarkers	Units	OrigDataRate	OrigDataStartFrame	OrigNumFrames
30	30	9	21	m	30	24	74
Frame#	Time	CHip			RHip			RKnee			RAnkle			RBigToe			RSmallToe			RHeel			LHip			LKnee			LAnkle			LBigToe			LSmallToe			LHeel			Neck			Nose			RShoulder			RElbow			RWrist			LShoulder			LElbow			LWrist			
		X1	Y1	Z1	X2	Y2	Z2	X3	Y3	Z3	X4	Y4	Z4	X5	Y5	Z5	X6	Y6	Z6	X7	Y7	Z7	X8	Y8	Z8	X9	Y9	Z9	X10	Y10	Z10	X11	Y11	Z11	X12	Y12	Z12	X13	Y13	Z13	X14	Y14	Z14	X15	Y15	Z15	X16	Y16	Z16	X17	Y17	Z17	X18	Y18	Z18	X19	Y19	Z19	X20	Y20	Z20	X21	Y21	Z21	
24	0.8	-0.2514091162668839	1.8870633981862677	-0.531587112741269	-0.2655317795753881	1.8844129033113726	-0.4718777117502278	-0.26856575107947267	1.7310490330132546	-0.45505076529701344													-0.23565160488709663	1.8901360075061648	-0.6079612378304973	-0.22574711881237874	1.7392171183507392	-0.6115454321206384	-0.20676698914633865	1.5872281093730922	-0.616431491875542	-0.20023353900923585	1.5555752695498268	-0.6958299514590967	-0.1931408417225324	1.564038965861366	-0.7039817452125288	-0.20613311611721452	1.5727983510904078	-0.5902514500860501	-0.24515638041207977	2.0502921261354072	-0.5247034787556669	-0.26412506684912135	2.1216379606965106	-0.5260801178141135	-0.2626878022273934	2.04562823443629	-0.4369342914771874	-0.3039185109012959	2.030272844080988	-0.37211922659746144	-0.29276765072828626	2.091347221961414	-0.4353861893346128	-0.22416580844917322	2.0559562526013715	-0.617702639039367	-0.2104395848143396	1.9755249860318234	-0.6669937777893247	-0.2034899857523834	1.8972162123808898	-0.7161525520969738
25	0.8333333333333334	-0.25010853820913787	1.8813673229872827	-0.5273689688481444	-0.2650804684226433	1.8803881643576164	-0.4624439888951476	-0.2738066548611716	1.7291677038393827	-0.4476026978978478													-0.2345492536111804	1.8888414450523738	-0.5959073563957411	-0.22535093065198433	1.7418071121576368	-0.6121972490667893	-0.20670276868927576	1.5869067247369275	-0.616459804798938	-0.2045793598440564	1.5552180095538901	-0.6913345381442089	-0.19314510075146535	1.5638049890442636	-0.7038505810591351	-0.20595380789288203	1.574897526953793	-0.5905414826683096	-0.24526240224449997	2.051403790993808	-0.5249357979044087	-0.26813871796948235	2.121889927803233	-0.5299767853305211	-0.2637102951360776	2.045484630768086	-0.43244023927544184	-0.3074505537363591	2.0245586479244007	-0.36823611068856515	-0.2951044283393987	2.0888244732214014	-0.42471319381289874	-0.22528071987113482	2.0567769723900144	-0.6123661065297609	-0.2100834085468719	1.9722890738594447	-0.6551286240905333	-0.20360358732648248	1.898867300957154	-0.7161547102627973
26	0.8666666666666667	-0.2543299318293973	1.8840410102442349	-0.523354909839207	-0.2683809511337042	1.8815414426413668	-0.45515444058044974	-0.2790475586428706	1.7272863746655107	-0.44015463049868214													-0.23603172109732365	1.8880356149637547	-0.59047993324858	-0.22626177062910968	1.7364130391027581	-0.6107244819180896	-0.2073652098572179	1.584862801104661	-0.6153777448206508	-0.20465116832015515	1.555467186495712	-0.691338982542385	-0.1953300999655208	1.563960330880162	-0.7016824235800697	-0.20683122564587586	1.5740332448033905	-0.5895077064153357	-0.24925727852846735	2.0511753713142955	-0.5205241624041876	-0.2741957490863002	2.122826196495809	-0.5241484588319394	-0.2655725835848318	2.0465713940427426	-0.4301110669660047	-0.3109825965714223	2.018844451767813	-0.36435299477966887	-0.2974412059505112	2.086301724481389	-0.4140401982911846	-0.22953455832662326	2.055266814998973	-0.6079544420394536	-0.21134860051595428	1.9709704968549098	-0.6498499555258039	-0.20473276796980364	1.8998875679819613	-0.711087555769703
27	0.9	-0.2580652907925003	1.8746855395666222	-0.5142639745972358	-0.27148472878100455	1.8708121715644503	-0.4373348836864392	-0.28428846242456957	1.7254050454916388	-0.4327065630995165													-0.2430328622138806	1.878802287599569	-0.5742040742431349	-0.22699497394722562	1.7336490267151892	-0.6096723717907439	-0.20684984738047096	1.5876012342673627	-0.6164955383198439	-0.2035303701911343	1.5567564827465608	-0.6886596388319567	-0.1942083760189256	1.5653923582723865	-0.6990992094390851	-0.20701146677315455	1.575424535512328	-0.5939178028739411	-0.25453984892127896	2.047164784511871	-0.5105732720990344	-0.2812935211840574	2.1201022002286876	-0.5130129891827842	-0.27057329969883476	2.041315851888303	-0.4202279961722872	-0.3145146394064855	2.013130255611226	-0.36046987887077264	-0.29977798356162366	2.0837789757413763	-0.40336720276947047	-0.23514494417416826	2.0525803172179735	-0.598472152409173	-0.21807223361243372	1.969249438768878	-0.643349059648821	-0.20723383378688925	1.897509521303696	-0.7084494801088147
28	0.9333333333333333	-0.2615425365838767	1.8732585890370066	-0.4978506575845764	-0.27289940785924666	1.8697190462240412	-0.431641896624465	-0.28929130578537227	1.715450175822731	-0.4304645379242886													-0.24760238405745633	1.877551527279982	-0.5694032972849118	-0.22963953238674584	1.7307325782284766	-0.6065055068179998	-0.20728072837240874	1.5867433972979106	-0.615858752684911	-0.20376029998759562	1.5555441865617934	-0.688133999590872	-0.19449926229388326	1.566879808587221	-0.6987129862925182	-0.20834909642479957	1.574453882877161	-0.5966203411255458	-0.2599209896219093	2.042005453683507	-0.5014080366508521	-0.28459235116661763	2.1134413459782535	-0.4975902191540585	-0.2766691496551988	2.0372163075408314	-0.4138657568680716	-0.3180466822415487	2.0074160594546386	-0.3565867629618764	-0.3021147611727361	2.0812562270013637	-0.3926942072477564	-0.23974344726017935	2.047702210877902	-0.5942800539031157	-0.22169976863175814	1.9689416439263512	-0.6356859058934227	-0.21403646049355182	1.8965287197805054	-0.7012710785781349
29	0.9666666666666667	-0.26290470218173734	1.8684618550019119	-0.48607330728884746	-0.2751325258534134	1.865118352198646	-0.42307698202994876	-0.28800331616629754	1.7168260377078535	-0.42490181817321837													-0.24809485811291027	1.8718839321193201	-0.5630463038480871	-0.23839660578540103	1.7232943204876565	-0.6011590833427201	-0.20749726712252983	1.585036084459517	-0.6153897529833867	-0.20366936194901794	1.555223041438817	-0.6881906639665305	-0.19437018998486172	1.5663848116404535	-0.6987797344693866	-0.20830398935454006	1.5715970839692708	-0.5963845635539252	-0.25895397293767947	2.037580989511044	-0.4886105433063575	-0.2925959063186666	2.1082767645379747	-0.48161330171977945	-0.2751453021238399	2.030111894054113	-0.39219757016626705	-0.3215787250766119	2.0017018632980514	-0.35270364705298013	-0.30445153878384856	2.078733478261351	-0.38202121172604225	-0.2427381593156773	2.0438839151612287	-0.5853280346310954	-0.22318178574485284	1.9597849699925625	-0.6289951480022493	-0.21600569379736548	1.89219272280636	-0.6954794643612374
30	1.0	-0.2618480285523047	1.8703171680645498	-0.4773853306544025	-0.2746218673788515	1.8653934068631342	-0.40851209180299103	-0.28671532654722287	1.718201899592976	-0.4193390984221481													-0.24954171512412018	1.8743194646208092	-0.5435306042589547	-0.24255705476704895	1.725177723487773	-0.6097107231943996	-0.20859552437618828	1.5874913474209693	-0.6150892615090896	-0.20337023899250053	1.5561734882989016	-0.6886485686030461	-0.19414569272603419	1.5648038413976708	-0.6989667980191279	-0.20948751077633623	1.5750856476197648	-0.5955533017401802	-0.25944381496079527	2.035318754773968	-0.4726585440920874	-0.2994161561861666	2.1039203931239245	-0.4679885454606333	-0.2774254484872383	2.028690057379809	-0.38299896565964026	-0.3223043574975157	2.004658292120406	-0.3408558942129778	-0.30678831639496107	2.0762107295213386	-0.3713482162043281	-0.2397052108355591	2.0414238571344434	-0.5653430774791274	-1.4733496972161169	1.8676558389795979	0.7139465332472928	-0.22149856268194593	1.8912601081372382	-0.6766233833290538
31	1.0333333333333334	-0.26090626041205506	1.8707492954391638	-0.4741773597342543	-0.26979592517399587	1.8677383575140334	-0.4014876648605318	-0.28542733692814815	1.7195777614780983	-0.41377637867107786													-0.24257416877200733	1.87449346250884	-0.53859882171446	-0.24203299631691177	1.7240858981367546	-0.5973878199437905	-0.208420363192132	1.5870428403371042	-0.615186868998881	-0.20142364845130106	1.55522223034824	-0.690293972688597	-0.19402146412650847	1.5646863500598274	-0.6990322582025484	-0.20678472897082095	1.5720183825003282	-0.5981004935374233	-0.26016862646038164	2.0373527979175874	-0.4670795628132793	-0.2969349447036319	2.0987926623482056	-0.4434351794208987	-0.2750586657316513	2.030719786264841	-0.3762646387355918	-0.32023324361180644	2.0050297539527486	-0.31762338625495634	-0.3091250940060735	2.073687980781326	-0.36067522068261404	-0.24262107205943653	2.043144106158834	-0.5577537677375981	-1.4941864412277843	1.8676802935004015	0.7477992116634906	-0.22049386700524842	1.889783104057139	-0.6647383756209017
32	1.0666666666666667	-0.261835828306433	1.8736531212919465	-0.46901709217964277	-0.2706952252462929	1.8672155569251454	-0.396014608833721	-0.2841393473090734	1.7209536233632208	-0.4082136589200076													-0.24654183041032895	1.874770854325329	-0.534194427861674	-0.23965555014572953	1.7237178995162998	-0.5912897407728663	-0.20801372849727504	1.5880390193383407	-0.615608065682371	-0.2014805474218056	1.555207910056832	-0.6902423995068923	-0.19432978057699937	1.5634134409267153	-0.6984689570019211	-0.20496161810896424	1.5733816889827335	-0.5958851925177159	-0.26381824482382793	2.0389405025341767	-0.46246476968684663	-0.29825632645228023	2.0994893834520973	-0.43198468807656043	-0.2745977096375296	2.034159898665104	-0.3681121945832531	-0.3181621297260972	2.005401215785091	-0.29439087829693494	-0.31146187161718597	2.0711652320413134	-0.3500022251608999	-0.24667263145278032	2.0454043416405536	-0.5535887623111968	-1.4979229152988087	1.8686473143222322	0.7514065400928821	-0.22158740377501493	1.890703140391398	-0.6594387837588516
